/* XPM */
static char * ring_2_15_xpm[] = {
"15 9 2 1",
" 	c white",
".	c black",
"  ...........  ",
" .           . ",
" . ...   ... . ",
"  ...........  ",
"   ...   ...   ",
"   .     .     ",
"   ...   ...   ",
"   .     .     ",
"   ...   ...   "};
