/* XPM */
static char *magick[] = {
/* columns rows colors chars-per-pixel */
"22 22 2 1",
"  c Gray100",
". c Gray0",
/* pixels */
"......................",
"......................",
"......................",
"......................",
"...               ....",
".. ............... ...",
". ................. ..",
". ................. ..",
". ...    ....    .. ..",
"..    ..      ..   ...",
"....      ..      ....",
".....    ....    .....",
"......  ......  ......",
"......  ......  ......",
"......    ....    ....",
"......  ......  ......",
"......    ....    ....",
"......................",
"......................",
"......................",
"......................",
"......................"
};
