#define keyring-15_width 15
#define keyring-15_height 9
static char keyring-15_bits[] = {
 0xf8,0x9f,0x54,0xb5,0x12,0xc4,0x7c,0xbf,0x78,0x9d,0x10,0x86,0x58,0x8c,0x10,
 0x8a,0x58,0x84};
