#define keyring-15_width 15
#define keyring-15_height 9
static char keyring-15_bits[] = {
  0xfc, 0x1f, 0x02, 0x20, 0x3a, 0x2e, 0xfc, 0x1f, 0x38, 0x0e, 0x08, 0x02, 
  0x38, 0x0e, 0x08, 0x02, 0x38, 0x0e, };
