#define keyring-22_width 22
#define keyring-22_height 22
static char keyring-22_bits[] = {
 0x80,0x3f,0xc0,0xe0,0xff,0xc0,0xf8,0xff,0xc3,0xfc,0xff,0xc7,0x0c,0x00,0xc6,
 0xf6,0xff,0xcd,0xfa,0xff,0xcb,0xfb,0xff,0xdb,0x1b,0x1e,0xda,0xd7,0xde,0xda,
 0x0f,0x00,0xdc,0x1f,0x1e,0xde,0x3f,0x3f,0xdf,0x3f,0x3f,0xdf,0x3e,0x3c,0xcc,
 0x3e,0x3f,0xcf,0x3c,0x3c,0xc4,0xfc,0xff,0xc7,0xf8,0xff,0xc3,0xe0,0xff,0xc0,
 0x80,0x3f,0xc0,0x00,0x00,0xc0};
