#define lock_width 9
#define lock_height 10
static char lock_bits[] = {
  0x00, 0x00, 0x1c, 0x00, 0x22, 0x00, 0x22, 0x00, 0x3e, 0x00, 0x55, 0x00, 
  0x6b, 0x00, 0x55, 0x00, 0x6b, 0x00, 0x7f, 0x00, };
