#define unlock_width 9
#define unlock_height 10
static char unlock_bits[] = {
  0xc0, 0x00, 0x20, 0x01, 0x20, 0x01, 0x20, 0x01, 0x3e, 0x00, 0x55, 0x00, 
  0x6b, 0x00, 0x55, 0x00, 0x6b, 0x00, 0x7f, 0x00, };
